<svg version="1.1" id="Layer_1" xmlns="http://www.w3.org/2000/svg" xmlns:xlink="http://www.w3.org/1999/xlink" x="0px" y="0px"
	 width="100%" viewBox="0 -120 1316 1380" enable-background="new 0 0 1316 1316" xml:space="preserve">
<path fill="#214d3c" opacity="1.000000" stroke="none"
	d="
M1317.000000,503.000000
	C1317.000000,774.666626 1317.000000,1045.833252 1317.000000,1317.000000
	C878.333435,1317.000000 439.666931,1317.000000 1.000286,1317.000000
	C1.000190,878.333557 1.000190,439.667084 1.000095,1.000462
	C439.666382,1.000308 878.332764,1.000308 1316.999512,1.000154
	C1317.000000,168.166672 1317.000000,335.333344 1317.000000,503.000000
M1187.001465,671.500000
	C1187.001465,632.336975 1187.103760,593.173401 1186.913208,554.011292
	C1186.876221,546.389832 1186.213013,538.688721 1184.965698,531.169250
	C1177.005737,483.185394 1133.655762,444.268616 1085.096924,442.038727
	C1064.972046,441.114563 1044.779175,441.671844 1024.617188,441.557892
	C1022.850098,441.547913 1021.082947,441.556580 1018.885559,441.556580
	C1018.885559,315.335297 1018.885559,189.606140 1018.885559,63.828072
	C774.706055,63.828072 530.965881,63.828072 286.842896,63.828072
	C286.842896,189.862091 286.842896,315.625092 286.842896,441.556580
	C268.132294,441.556580 249.803177,441.442963 231.476822,441.617737
	C225.000153,441.679474 218.478043,442.066620 212.065430,442.949677
	C161.001709,449.981689 119.585625,495.890137 119.196709,547.428650
	C118.628311,622.751038 118.700279,698.083130 119.178001,773.406799
	C119.470871,819.582336 153.227448,862.831665 197.821640,874.754700
	C209.097961,877.769653 221.073624,878.881287 232.790436,879.370789
	C250.704956,880.119202 268.673828,879.567078 287.088013,879.567078
	C287.088013,984.700378 287.088013,1089.422974 287.088013,1194.195312
	C531.298096,1194.195312 775.036499,1194.195312 1019.210327,1194.195312
	C1019.210327,1089.178467 1019.210327,984.437866 1019.210327,879.566956
	C1037.641724,879.566956 1055.640869,879.761230 1073.632568,879.478027
	C1081.598389,879.352661 1089.699463,879.022705 1097.482178,877.485229
	C1150.486328,867.014465 1186.858276,822.574341 1186.987305,768.491821
	C1187.063721,736.494690 1187.001465,704.497314 1187.001465,671.500000
z"/>
<path fill="#FFFFFF" opacity="1.000000" stroke="none" 
	d="
M1187.001465,672.000000 
	C1187.001465,704.497314 1187.063721,736.494690 1186.987305,768.491821 
	C1186.858276,822.574341 1150.486328,867.014465 1097.482178,877.485229 
	C1089.699463,879.022705 1081.598389,879.352661 1073.632568,879.478027 
	C1055.640869,879.761230 1037.641724,879.566956 1019.210327,879.566956 
	C1019.210327,984.437866 1019.210327,1089.178467 1019.210327,1194.195312 
	C775.036499,1194.195312 531.298096,1194.195312 287.088013,1194.195312 
	C287.088013,1089.422974 287.088013,984.700378 287.088013,879.567078 
	C268.673828,879.567078 250.704956,880.119202 232.790436,879.370789 
	C221.073624,878.881287 209.097961,877.769653 197.821640,874.754700 
	C153.227448,862.831665 119.470871,819.582336 119.178001,773.406799 
	C118.700279,698.083130 118.628311,622.751038 119.196709,547.428650 
	C119.585625,495.890137 161.001709,449.981689 212.065430,442.949677 
	C218.478043,442.066620 225.000153,441.679474 231.476822,441.617737 
	C249.803177,441.442963 268.132294,441.556580 286.842896,441.556580 
	C286.842896,315.625092 286.842896,189.862091 286.842896,63.828072 
	C530.965881,63.828072 774.706055,63.828072 1018.885559,63.828072 
	C1018.885559,189.606140 1018.885559,315.335297 1018.885559,441.556580 
	C1021.082947,441.556580 1022.850098,441.547913 1024.617188,441.557892 
	C1044.779175,441.671844 1064.972046,441.114563 1085.096924,442.038727 
	C1133.655762,444.268616 1177.005737,483.185394 1184.965698,531.169250 
	C1186.213013,538.688721 1186.876221,546.389832 1186.913208,554.011292 
	C1187.103760,593.173401 1187.001465,632.336975 1187.001465,672.000000 
M249.400238,762.237061 
	C232.685516,753.224365 225.259781,735.053894 231.256317,717.839600 
	C236.783081,701.973938 250.372025,693.434448 270.149078,693.434204 
	C525.301086,693.431458 780.453064,693.430542 1035.605103,693.453552 
	C1038.931030,693.453857 1042.276855,693.596130 1045.579590,693.970032 
	C1064.531860,696.115051 1079.105957,714.997375 1076.432617,733.836487 
	C1073.699463,753.096985 1059.366089,765.797180 1039.969727,766.057556 
	C1033.042358,766.150574 1026.112549,766.072449 1019.334595,766.072449 
	C1019.334595,784.282288 1019.334595,801.847351 1019.334595,819.514160 
	C1038.995850,819.514160 1058.339233,819.996033 1077.649536,819.401245 
	C1106.612183,818.509094 1126.975342,796.988647 1126.988037,768.036682 
	C1127.019287,696.374146 1127.027100,624.711548 1126.931030,553.049133 
	C1126.924805,548.432190 1126.472168,543.685730 1125.345093,539.222229 
	C1119.477295,515.983948 1099.938843,501.570374 1074.708740,501.570038 
	C793.558228,501.566040 512.407715,501.567505 231.257172,501.567871 
	C230.090576,501.567871 228.922684,501.537933 227.757599,501.581268 
	C200.616501,502.591034 179.117752,523.913879 179.060455,550.576416 
	C178.902893,623.905151 178.904373,697.234741 179.064377,770.563477 
	C179.119568,795.858765 199.162033,817.311157 224.389679,819.085022 
	C236.001572,819.901550 247.703201,819.473694 259.364532,819.545166 
	C268.467316,819.600952 277.570740,819.556274 286.710388,819.556274 
	C286.710388,801.503723 286.710388,783.928040 286.710388,766.078918 
	C282.620117,766.078918 278.814484,766.054626 275.009247,766.083923 
	C266.517944,766.149231 257.980011,766.581360 249.400238,762.237061 
M346.999908,975.500000 
	C346.999908,1028.437622 346.999908,1081.375366 346.999908,1134.177979 
	C551.277649,1134.177979 754.991028,1134.177979 958.691284,1134.177979 
	C958.691284,1011.350403 958.691284,888.801941 958.691284,766.325317 
	C754.673523,766.325317 550.964783,766.325317 346.999908,766.325317 
	C346.999908,835.905334 346.999908,905.202698 346.999908,975.500000 
M847.499695,441.563934 
	C884.596375,441.563934 921.693054,441.563934 958.702026,441.563934 
	C958.702026,335.192627 958.702026,229.447311 958.702026,123.857094 
	C754.696106,123.857094 550.988220,123.857094 347.327271,123.857094 
	C347.327271,229.857834 347.327271,335.565460 347.327271,441.563904 
	C513.936096,441.563904 680.217896,441.563904 847.499695,441.563934 
z"/>
<path fill="#214d3c" opacity="1.000000" stroke="none" 
	d="
M249.721481,762.438782 
	C257.980011,766.581360 266.517944,766.149231 275.009247,766.083923 
	C278.814484,766.054626 282.620117,766.078918 286.710388,766.078918 
	C286.710388,783.928040 286.710388,801.503723 286.710388,819.556274 
	C277.570740,819.556274 268.467316,819.600952 259.364532,819.545166 
	C247.703201,819.473694 236.001572,819.901550 224.389679,819.085022 
	C199.162033,817.311157 179.119568,795.858765 179.064377,770.563477 
	C178.904373,697.234741 178.902893,623.905151 179.060455,550.576416 
	C179.117752,523.913879 200.616501,502.591034 227.757599,501.581268 
	C228.922684,501.537933 230.090576,501.567871 231.257172,501.567871 
	C512.407715,501.567505 793.558228,501.566040 1074.708740,501.570038 
	C1099.938843,501.570374 1119.477295,515.983948 1125.345093,539.222229 
	C1126.472168,543.685730 1126.924805,548.432190 1126.931030,553.049133 
	C1127.027100,624.711548 1127.019287,696.374146 1126.988037,768.036682 
	C1126.975342,796.988647 1106.612183,818.509094 1077.649536,819.401245 
	C1058.339233,819.996033 1038.995850,819.514160 1019.334595,819.514160 
	C1019.334595,801.847351 1019.334595,784.282288 1019.334595,766.072449 
	C1026.112549,766.072449 1033.042358,766.150574 1039.969727,766.057556 
	C1059.366089,765.797180 1073.699463,753.096985 1076.432617,733.836487 
	C1079.105957,714.997375 1064.531860,696.115051 1045.579590,693.970032 
	C1042.276855,693.596130 1038.931030,693.453857 1035.605103,693.453552 
	C780.453064,693.430542 525.301086,693.431458 270.149078,693.434204 
	C250.372025,693.434448 236.783081,701.973938 231.256317,717.839600 
	C225.259781,735.053894 232.685516,753.224365 249.721481,762.438782 
M1049.152588,594.466248 
	C1060.857300,599.548767 1072.010376,598.486267 1082.006470,590.588257 
	C1091.499634,583.087585 1095.507446,572.909119 1093.506226,560.934509 
	C1090.945068,545.609985 1078.779907,535.192871 1063.458374,534.551575 
	C1049.227295,533.955811 1035.813232,543.810608 1032.117554,557.576355 
	C1028.169556,572.281921 1034.535522,586.503662 1049.152588,594.466248 
z"/>
<path fill="#214d3c" opacity="1.000000" stroke="none" 
	d="
M346.999908,975.000000 
	C346.999908,905.202698 346.999908,835.905334 346.999908,766.325317 
	C550.964783,766.325317 754.673523,766.325317 958.691284,766.325317 
	C958.691284,888.801941 958.691284,1011.350403 958.691284,1134.177979 
	C754.991028,1134.177979 551.277649,1134.177979 346.999908,1134.177979 
	C346.999908,1081.375366 346.999908,1028.437622 346.999908,975.000000 
M711.783386,923.037048 
	C712.121033,922.317017 712.458679,921.596924 712.889893,920.911072 
	C712.889893,920.911072 712.888306,920.811401 713.595581,920.864197 
	C722.839050,915.406128 729.443909,908.015869 731.274109,896.371460 
	C731.306152,895.729065 731.338196,895.086609 731.998169,893.976929 
	C731.770081,890.186646 731.541992,886.396423 731.365234,882.070557 
	C731.292175,881.721069 731.219116,881.371643 731.503296,880.478882 
	C729.854004,872.950134 726.803101,866.275879 719.827271,861.414795 
	C719.557129,861.206482 719.252380,861.084961 718.820801,860.375488 
	C709.646851,852.215576 698.681213,850.144958 687.309143,853.056763 
	C681.766479,854.475952 676.986145,858.872375 671.483521,862.325562 
	C670.971863,862.851990 670.460205,863.378418 669.262756,863.954590 
	C664.530273,869.092346 660.222900,874.430725 660.560791,882.730347 
	C660.581604,883.673279 660.602417,884.616272 660.099915,885.963623 
	C660.272156,887.791260 660.444336,889.618896 660.495972,892.121216 
	C660.529724,893.259644 660.563538,894.398071 660.017517,895.880493 
	C657.390442,899.950134 654.763367,904.019775 652.047668,908.034058 
	C652.047668,908.034058 652.083984,908.132019 651.381775,908.103455 
	C647.806824,910.983093 644.231934,913.862732 640.094604,916.836792 
	C639.779053,917.040405 639.463501,917.244019 638.438904,917.323059 
	C634.972900,919.281250 631.506836,921.239441 627.393799,923.189026 
	C626.978699,923.295837 626.563599,923.402649 625.320923,923.251282 
	C617.315491,925.049500 609.929626,923.866516 602.091919,920.964844 
	C596.039062,918.723938 588.805908,919.286133 582.108154,919.378845 
	C579.728943,919.411804 577.381409,921.734497 574.373962,923.108765 
	C573.968994,923.260376 573.564026,923.411987 572.497192,923.321411 
	C554.704773,931.830444 545.506958,957.844055 561.282410,978.154236 
	C564.439209,982.218445 567.839783,987.131775 574.663330,987.557922 
	C574.999390,987.782349 575.335449,988.006775 575.902039,988.915833 
	C577.403259,989.586853 578.846863,990.613037 580.415710,990.867859 
	C587.521545,992.022095 594.720886,993.747314 601.996521,989.385620 
	C602.334045,989.264099 602.671570,989.142578 603.751343,989.095459 
	C607.486267,986.995544 611.221191,984.895630 615.876343,982.872498 
	C619.262634,982.853455 622.648865,982.834412 626.507385,983.351990 
	C631.664978,985.248535 636.822571,987.145081 642.260742,989.263489 
	C642.260742,989.263489 642.616272,989.303223 642.930298,989.905151 
	C647.575989,992.983459 652.221619,996.061829 657.001526,999.009460 
	C657.001526,999.009460 656.857910,999.128967 656.945740,999.736328 
	C657.590088,1000.216614 658.234497,1000.696899 659.019409,1001.618958 
	C659.187256,1001.903259 659.432922,1002.078491 659.894409,1002.872803 
	C663.052490,1008.205994 664.491272,1013.871582 664.969360,1020.153503 
	C665.493347,1027.037598 667.977112,1033.593628 673.998901,1038.004883 
	C673.998901,1038.004883 673.914795,1038.070923 673.957031,1038.719971 
	C674.630554,1039.161743 675.304016,1039.603638 676.365234,1040.407227 
	C676.680115,1040.565552 676.994934,1040.723877 677.299316,1041.557617 
	C678.307068,1042.620972 679.136414,1043.988403 680.350159,1044.700806 
	C693.336304,1052.323120 706.680908,1053.070557 719.684570,1045.249023 
	C723.642212,1042.868408 726.334778,1038.384521 729.959839,1034.624023 
	C729.959839,1034.624023 730.170532,1034.252808 730.858276,1034.140869 
	C732.344360,1030.703735 733.830444,1027.266602 735.499512,1023.298401 
	C735.477661,1022.361206 735.455750,1021.423950 735.995422,1020.025208 
	C738.473206,1015.964111 738.884399,1011.970825 735.644592,1007.303955 
	C735.509460,1006.260864 735.374329,1005.217712 735.575684,1003.482239 
	C734.103333,996.679382 730.664673,991.166199 724.892456,987.091187 
	C724.892456,987.091187 724.802307,987.123962 724.776001,986.450928 
	C723.253479,985.562622 721.730957,984.674316 720.002441,984.000000 
	C720.002441,984.000000 720.205750,983.785095 720.025696,983.143738 
	C714.472656,979.954224 710.076111,975.948364 709.450989,969.009216 
	C709.358704,967.984619 708.309692,967.046143 707.760437,965.327759 
	C707.612427,964.606873 707.464417,963.885925 707.667725,962.394470 
	C707.006958,959.620911 706.346191,956.847351 705.779053,953.145935 
	C705.753113,949.409302 705.727112,945.672668 706.264587,941.458679 
	C706.650085,938.920898 707.035583,936.383118 707.653381,933.235657 
	C707.669617,932.803223 707.685913,932.370728 708.263184,931.507019 
	C709.239136,928.730713 710.215149,925.954468 711.010254,922.996033 
	C711.010254,922.996033 711.183655,923.184143 711.783386,923.037048 
M559.151245,823.071838 
	C557.489624,823.168701 555.813110,823.156555 554.168884,823.380798 
	C545.733582,824.531189 537.411072,826.358948 530.377991,831.365356 
	C521.653564,837.575684 519.190674,847.401428 518.237061,857.120972 
	C517.102356,868.686157 517.625610,880.407288 517.231445,892.054077 
	C516.899841,901.852722 516.913025,911.727539 515.593201,921.407776 
	C514.538879,929.140625 510.860687,936.244934 502.235870,938.170837 
	C494.849854,939.820190 487.276489,940.757996 479.736877,941.532532 
	C476.475128,941.867737 474.796814,942.547241 475.055756,946.169556 
	C475.304596,949.649719 475.211517,953.164978 475.084106,956.658142 
	C474.968872,959.817261 476.213226,961.264954 479.470551,961.135559 
	C482.795746,961.003601 486.141571,960.980530 489.461060,961.187378 
	C504.234192,962.107605 514.792725,967.546082 516.183350,984.829468 
	C517.315735,998.903503 516.719788,1013.108093 517.351624,1027.234131 
	C517.750488,1036.152222 518.424377,1045.137085 520.022827,1053.900879 
	C521.690979,1063.046631 526.406311,1070.742798 535.566650,1074.388428 
	C549.907227,1080.095825 565.014832,1080.855225 580.208252,1080.316284 
	C581.253723,1080.279175 582.940613,1077.955078 583.078552,1076.570190 
	C583.472595,1072.611572 583.099243,1068.583862 583.261597,1064.592773 
	C583.401855,1061.144531 581.974854,1059.821777 578.542419,1059.875244 
	C573.050842,1059.960938 567.478088,1060.270874 562.076660,1059.511230 
	C552.446899,1058.156860 546.830994,1056.554199 545.237244,1047.192261 
	C544.272827,1041.527466 543.389526,1035.798950 543.147705,1030.070435 
	C542.418274,1012.785583 542.282104,995.473022 541.373291,978.199768 
	C540.971375,970.559509 537.855713,963.666992 531.321716,959.015381 
	C527.506592,956.299438 523.407715,953.981995 519.359985,951.437134 
	C519.544373,951.140625 519.708801,950.609741 520.068787,950.354736 
	C520.735107,949.882507 521.483826,949.481934 522.253784,949.207458 
	C530.931946,946.114746 537.421204,940.350769 539.551758,931.464478 
	C541.587463,922.973572 542.561523,914.109680 542.930847,905.364441 
	C543.541809,890.896912 542.793152,876.364258 543.625488,861.917114 
	C544.014893,855.157654 545.695801,847.734924 553.675781,845.090149 
	C557.854980,843.705017 562.267151,842.805664 566.644897,842.299561 
	C570.756653,841.824219 574.963562,842.069031 579.125000,842.160095 
	C582.121826,842.225647 583.347412,840.945618 583.245728,837.967224 
	C583.120728,834.307129 583.038147,830.627808 583.272522,826.978333 
	C583.504822,823.360901 581.846313,822.243042 578.535767,822.386169 
	C572.383057,822.652100 566.224548,822.787170 559.151245,823.071838 
M767.339111,864.911255 
	C767.372620,868.575623 767.321899,872.242981 767.454041,875.903809 
	C768.071472,893.002991 768.247437,910.138428 769.569214,927.184326 
	C770.395569,937.840942 777.284790,944.833069 787.072571,948.931213 
	C788.538818,949.545166 789.858032,950.510254 792.099976,951.807556 
	C783.837036,954.890137 777.397522,958.156555 773.317871,965.106140 
	C768.832642,972.746765 767.887268,981.071899 767.610413,989.502258 
	C767.238953,1000.817749 767.657715,1012.157837 767.369141,1023.477966 
	C767.196777,1030.238892 766.434814,1036.993896 765.734192,1043.730225 
	C764.530579,1055.302979 758.356323,1058.787720 746.059326,1059.607910 
	C741.079895,1059.939941 736.072083,1059.880249 731.076599,1059.924072 
	C728.481384,1059.946899 727.016296,1060.864868 727.085327,1063.735229 
	C727.189392,1068.063599 727.148743,1072.396729 727.099976,1076.727051 
	C727.068237,1079.541260 728.578552,1080.774292 731.161011,1080.493286 
	C744.178772,1079.076660 757.265076,1078.034180 770.161865,1075.872681 
	C776.372131,1074.832031 781.643555,1070.945312 785.168274,1065.174438 
	C790.912598,1055.769653 792.281006,1045.206177 792.718933,1034.660034 
	C793.340576,1019.692871 792.659485,1004.673706 793.184570,989.699524 
	C793.371582,984.367065 794.631897,978.725891 796.841431,973.882202 
	C801.557129,963.544312 811.298523,961.496094 821.468933,961.175110 
	C835.549011,960.730713 835.390259,960.835632 835.482178,946.680603 
	C835.508789,942.581299 834.046265,941.639160 830.285217,941.546387 
	C824.480835,941.403320 818.583618,941.148438 812.924988,939.977783 
	C806.208862,938.588379 799.305359,936.240417 796.952637,928.852966 
	C794.966858,922.617920 793.365601,916.030945 793.074585,909.533447 
	C792.478821,896.233765 793.438232,882.857178 792.668884,869.575195 
	C792.156372,860.725403 790.263367,851.856201 788.053955,843.235107 
	C786.250732,836.199036 781.122986,831.463989 774.354065,828.442261 
	C760.212036,822.128967 745.233582,822.390808 730.274963,822.617310 
	C729.201355,822.633545 727.384888,824.719910 727.249512,825.986450 
	C726.844727,829.774353 727.276917,833.643433 727.052856,837.461487 
	C726.850647,840.907043 728.113586,842.287842 731.605774,842.176880 
	C736.429932,842.023621 741.347961,841.660339 746.076233,842.375610 
	C753.573547,843.509766 761.453796,844.752136 764.490540,853.423096 
	C765.692200,856.854187 766.349121,860.476013 767.339111,864.911255 
z"/>
<path fill="#214d3c" opacity="1.000000" stroke="none" 
	d="
M846.999634,441.563904 
	C680.217896,441.563904 513.936096,441.563904 347.327271,441.563904 
	C347.327271,335.565460 347.327271,229.857834 347.327271,123.857094 
	C550.988220,123.857094 754.696106,123.857094 958.702026,123.857094 
	C958.702026,229.447311 958.702026,335.192627 958.702026,441.563934 
	C921.693054,441.563934 884.596375,441.563934 846.999634,441.563904 
M401.781586,240.439835 
	C405.233063,250.704437 411.682373,255.173370 423.351471,255.174423 
	C576.510864,255.188187 729.670288,255.183578 882.829651,255.182602 
	C883.496155,255.182602 884.162964,255.178925 884.829102,255.158844 
	C896.383728,254.810486 904.943604,246.401718 904.995178,235.351791 
	C905.047485,224.143829 896.279358,215.460785 884.564209,215.195297 
	C880.566406,215.104691 876.564880,215.179886 872.565063,215.179886 
	C722.905518,215.179825 573.245972,215.177551 423.586395,215.183304 
	C408.195068,215.183899 399.239777,225.141891 401.781586,240.439835 
M401.072052,300.184265 
	C403.572144,312.248840 410.505493,318.113098 422.545898,318.114380 
	C576.201416,318.130859 729.856873,318.128387 883.512390,318.094604 
	C885.817139,318.094086 888.210144,317.950958 890.411133,317.335175 
	C900.080566,314.629944 906.172913,305.350830 904.870361,295.633148 
	C903.487976,285.320374 895.055420,278.148285 883.883606,278.146088 
	C729.894775,278.115479 575.906006,278.110260 421.917175,278.154114 
	C409.417999,278.157684 401.261169,286.626953 401.072052,300.184265 
M436.501038,341.179749 
	C431.336304,341.180450 426.166931,341.039001 421.007751,341.208893 
	C406.345154,341.691711 396.928741,355.910156 402.671814,369.011505 
	C406.529236,377.811218 413.665039,381.235535 423.083679,381.226624 
	C502.886993,381.151245 582.690430,381.184296 662.493774,381.176880 
	C663.991943,381.176758 665.498352,381.162781 666.987000,381.015381 
	C675.314636,380.190857 682.597290,373.409302 684.068665,365.161560 
	C686.441528,351.861572 677.105225,341.198914 662.916077,341.193634 
	C587.777588,341.165558 512.639160,341.180023 436.501038,341.179749 
z"/>
<path fill="#FFFFFF" opacity="1.000000" stroke="none" 
	d="
M1048.814453,594.294006 
	C1034.535522,586.503662 1028.169556,572.281921 1032.117554,557.576355 
	C1035.813232,543.810608 1049.227295,533.955811 1063.458374,534.551575 
	C1078.779907,535.192871 1090.945068,545.609985 1093.506226,560.934509 
	C1095.507446,572.909119 1091.499634,583.087585 1082.006470,590.588257 
	C1072.010376,598.486267 1060.857300,599.548767 1048.814453,594.294006 
z"/>
<path fill="#FFFFFF" opacity="1.000000" stroke="none" 
	d="
M718.913025,861.050293 
	C719.252380,861.084961 719.557129,861.206482 719.944275,861.974976 
	C723.756226,868.697510 727.451172,874.859802 731.146057,881.022156 
	C731.219116,881.371643 731.292175,881.721069 731.197632,882.817139 
	C731.143433,887.190613 731.256836,890.817383 731.370239,894.444214 
	C731.338196,895.086609 731.306152,895.729065 730.854858,896.828552 
	C730.028870,897.793335 729.449341,898.238953 729.241577,898.817993 
	C726.335938,906.918701 721.832214,913.767517 714.364014,918.424438 
	C713.652527,918.868042 713.369995,919.999390 712.888306,920.811401 
	C712.888306,920.811401 712.889893,920.911072 712.516846,920.940552 
	C711.823792,921.708069 711.503723,922.446106 711.183655,923.184143 
	C711.183655,923.184143 711.010254,922.996033 710.735901,923.062622 
	C709.541748,926.065613 708.621948,929.001953 707.702148,931.938293 
	C707.685913,932.370728 707.669617,932.803223 707.228943,933.672363 
	C706.436707,936.718079 706.068909,939.327026 705.701172,941.936035 
	C705.727112,945.672668 705.753113,949.409302 705.499146,953.897705 
	C705.918335,957.488037 706.617371,960.326538 707.316406,963.165039 
	C707.464417,963.885925 707.612427,964.606873 707.502441,965.972656 
	C706.595581,973.965942 713.568604,983.751831 720.205750,983.785095 
	C720.205750,983.785095 720.002441,984.000000 720.066528,984.249268 
	C721.687866,985.373657 723.245117,986.248840 724.802307,987.123962 
	C724.802307,987.123962 724.892456,987.091187 724.924194,987.482910 
	C727.387817,991.533020 729.859131,995.166016 732.234192,998.860901 
	C733.332764,1000.569885 734.243408,1002.399658 735.239258,1004.174622 
	C735.374329,1005.217712 735.509460,1006.260864 735.408081,1007.979370 
	C735.259033,1012.598755 735.346497,1016.542725 735.433838,1020.486755 
	C735.455750,1021.423950 735.477661,1022.361206 735.109375,1023.694092 
	C733.203064,1027.477417 731.686768,1030.865112 730.170532,1034.252808 
	C730.170532,1034.252808 729.959839,1034.624023 729.466980,1034.800049 
	C727.629272,1036.197266 726.235107,1037.368896 724.947510,1038.647827 
	C716.552063,1046.987183 706.487183,1050.789307 694.909363,1048.039307 
	C688.819763,1046.592896 683.162354,1043.326660 677.309814,1040.882202 
	C676.994934,1040.723877 676.680115,1040.565552 676.165161,1039.887207 
	C675.281677,1038.935181 674.598206,1038.503052 673.914795,1038.070923 
	C673.914795,1038.070923 673.998901,1038.004883 673.987854,1037.681641 
	C669.259583,1029.661377 665.903076,1021.700256 665.602661,1012.317627 
	C665.492249,1008.867798 661.809570,1005.532349 659.756287,1002.144714 
	C659.432922,1002.078491 659.187256,1001.903259 658.982910,1001.047363 
	C658.250305,1000.026855 657.554077,999.577881 656.857910,999.128967 
	C656.857910,999.128967 657.001526,999.009460 656.973755,998.716797 
	C653.148560,993.845459 648.807739,990.120544 642.616272,989.303223 
	C642.616272,989.303223 642.260742,989.263489 642.088318,988.797363 
	C637.267578,984.634949 632.170166,982.231384 626.035156,982.815369 
	C622.648865,982.834412 619.262634,982.853455 615.191101,982.592529 
	C610.673584,984.548767 606.841370,986.784912 603.009094,989.021057 
	C602.671570,989.142578 602.334045,989.264099 601.275452,989.241821 
	C592.260071,988.809082 583.965820,988.520081 575.671509,988.231079 
	C575.335449,988.006775 574.999390,987.782349 574.302490,987.091553 
	C569.148621,981.768677 563.487549,977.497559 559.737976,971.937378 
	C551.162170,959.220154 554.387207,940.287354 565.935242,930.103516 
	C568.371216,927.955322 570.752563,925.745178 573.159058,923.563599 
	C573.564026,923.411987 573.968994,923.260376 575.097778,923.054932 
	C586.103333,920.205627 596.060059,919.937683 606.382324,923.965271 
	C611.628601,926.012329 617.952454,925.373047 623.803040,925.701111 
	C624.541504,925.742493 625.364624,924.276794 626.148499,923.509399 
	C626.563599,923.402649 626.978699,923.295837 627.937561,923.415283 
	C632.036865,921.576904 635.592407,919.512329 639.147949,917.447693 
	C639.463501,917.244019 639.779053,917.040405 640.742004,916.865601 
	C644.954285,913.973572 648.519165,911.052795 652.083984,908.132080 
	C652.083984,908.132019 652.047668,908.034058 652.437866,908.049316 
	C657.282043,905.044617 659.722107,900.775818 660.597290,895.536499 
	C660.563538,894.398071 660.529724,893.259644 660.732544,891.311401 
	C660.853821,888.854126 660.738525,887.206665 660.623291,885.559204 
	C660.602417,884.616272 660.581604,883.673279 660.976562,882.209229 
	C664.244446,875.760315 667.096497,869.832581 669.948608,863.904846 
	C670.460205,863.378418 670.971863,862.851990 672.037781,862.130005 
	C673.314514,861.555725 674.090210,861.252625 674.751526,860.787109 
	C683.469177,854.649780 693.088745,852.358826 703.420410,855.054077 
	C708.743713,856.442810 713.758667,859.013672 718.913025,861.050293 
M671.360840,891.657898 
	C671.754822,889.913574 672.071777,888.147339 672.559570,886.429688 
	C673.461731,883.252930 674.130310,880.231995 678.765869,880.281311 
	C686.533691,880.364075 688.692932,877.850647 688.590332,870.261963 
	C688.574951,869.123840 688.715088,867.983521 689.527527,866.894104 
	C691.035095,865.966309 692.542603,865.038574 694.707031,863.857056 
	C695.631653,863.707886 696.556335,863.558716 698.319458,863.715393 
	C702.132690,863.460693 705.945923,863.205994 709.759155,862.951294 
	C709.957764,862.567566 710.156433,862.183838 710.355042,861.800110 
	C708.440613,860.971375 706.526184,860.142700 703.967224,859.255920 
	C703.346863,859.078308 702.726440,858.900696 701.863525,857.977966 
	C695.765686,856.134277 689.946960,856.050293 684.245239,860.995239 
	C677.126587,864.394226 672.110107,869.845154 668.066162,877.034363 
	C667.681396,879.018616 667.296570,881.002869 666.954773,883.904419 
	C666.948914,887.273010 666.943054,890.641602 666.428589,894.419678 
	C667.696960,897.274963 668.965332,900.130249 670.233704,902.985535 
	C670.609802,902.810791 670.985962,902.636047 671.362061,902.461304 
	C671.362061,899.125488 671.362061,895.789734 671.360840,891.657898 
M625.867065,950.749207 
	C625.882874,955.894531 625.460022,961.076904 629.484375,965.306091 
	C640.061401,976.421387 652.804443,983.777649 667.786194,986.859192 
	C677.335205,988.823242 688.489929,981.527954 691.237183,972.013550 
	C694.883850,959.384155 694.274902,946.650208 691.213196,934.045654 
	C688.619568,923.368225 677.864136,916.344666 667.099670,918.681763 
	C651.712036,922.022705 638.980835,930.204224 628.839355,942.185913 
	C627.164307,944.164795 626.820496,947.270508 625.867065,950.749207 
M562.391907,947.797791 
	C559.115479,955.566528 559.557251,960.026306 564.215637,966.294373 
	C565.022339,962.448608 565.877930,958.612366 566.622864,954.754639 
	C567.470642,950.364075 569.694458,948.240234 574.522217,948.502869 
	C580.076111,948.805176 584.680664,944.511536 583.506042,939.757324 
	C582.081726,933.992188 585.358337,932.750000 589.440002,931.735229 
	C593.172424,930.807434 596.962585,930.112183 601.148804,929.225159 
	C591.737061,921.647644 568.692871,927.887512 562.391907,947.797791 
M678.296082,1012.127869 
	C680.066345,1007.942627 681.426086,1003.955994 687.815247,1005.439758 
	C691.868347,1006.381042 695.778015,1001.741333 694.900574,997.284424 
	C693.926880,992.338318 696.376465,990.659973 700.197266,989.537354 
	C704.285645,988.336060 708.406738,987.245728 712.871033,986.007812 
	C701.274902,981.701782 688.171936,984.830933 680.644897,993.430847 
	C672.690430,1002.518982 670.379578,1015.137817 675.069092,1024.158325 
	C676.094604,1020.371887 677.104858,1016.641846 678.296082,1012.127869 
z"/>
<path fill="#FFFFFF" opacity="1.000000" stroke="none" 
	d="
M559.609863,823.024292 
	C566.224548,822.787170 572.383057,822.652100 578.535767,822.386169 
	C581.846313,822.243042 583.504822,823.360901 583.272522,826.978333 
	C583.038147,830.627808 583.120728,834.307129 583.245728,837.967224 
	C583.347412,840.945618 582.121826,842.225647 579.125000,842.160095 
	C574.963562,842.069031 570.756653,841.824219 566.644897,842.299561 
	C562.267151,842.805664 557.854980,843.705017 553.675781,845.090149 
	C545.695801,847.734924 544.014893,855.157654 543.625488,861.917114 
	C542.793152,876.364258 543.541809,890.896912 542.930847,905.364441 
	C542.561523,914.109680 541.587463,922.973572 539.551758,931.464478 
	C537.421204,940.350769 530.931946,946.114746 522.253784,949.207458 
	C521.483826,949.481934 520.735107,949.882507 520.068787,950.354736 
	C519.708801,950.609741 519.544373,951.140625 519.359985,951.437134 
	C523.407715,953.981995 527.506592,956.299438 531.321716,959.015381 
	C537.855713,963.666992 540.971375,970.559509 541.373291,978.199768 
	C542.282104,995.473022 542.418274,1012.785583 543.147705,1030.070435 
	C543.389526,1035.798950 544.272827,1041.527466 545.237244,1047.192261 
	C546.830994,1056.554199 552.446899,1058.156860 562.076660,1059.511230 
	C567.478088,1060.270874 573.050842,1059.960938 578.542419,1059.875244 
	C581.974854,1059.821777 583.401855,1061.144531 583.261597,1064.592773 
	C583.099243,1068.583862 583.472595,1072.611572 583.078552,1076.570190 
	C582.940613,1077.955078 581.253723,1080.279175 580.208252,1080.316284 
	C565.014832,1080.855225 549.907227,1080.095825 535.566650,1074.388428 
	C526.406311,1070.742798 521.690979,1063.046631 520.022827,1053.900879 
	C518.424377,1045.137085 517.750488,1036.152222 517.351624,1027.234131 
	C516.719788,1013.108093 517.315735,998.903503 516.183350,984.829468 
	C514.792725,967.546082 504.234192,962.107605 489.461060,961.187378 
	C486.141571,960.980530 482.795746,961.003601 479.470551,961.135559 
	C476.213226,961.264954 474.968872,959.817261 475.084106,956.658142 
	C475.211517,953.164978 475.304596,949.649719 475.055756,946.169556 
	C474.796814,942.547241 476.475128,941.867737 479.736877,941.532532 
	C487.276489,940.757996 494.849854,939.820190 502.235870,938.170837 
	C510.860687,936.244934 514.538879,929.140625 515.593201,921.407776 
	C516.913025,911.727539 516.899841,901.852722 517.231445,892.054077 
	C517.625610,880.407288 517.102356,868.686157 518.237061,857.120972 
	C519.190674,847.401428 521.653564,837.575684 530.377991,831.365356 
	C537.411072,826.358948 545.733582,824.531189 554.168884,823.380798 
	C555.813110,823.156555 557.489624,823.168701 559.609863,823.024292 
z"/>
<path fill="#FFFFFF" opacity="1.000000" stroke="none" 
	d="
M767.296570,864.461182 
	C766.349121,860.476013 765.692200,856.854187 764.490540,853.423096 
	C761.453796,844.752136 753.573547,843.509766 746.076233,842.375610 
	C741.347961,841.660339 736.429932,842.023621 731.605774,842.176880 
	C728.113586,842.287842 726.850647,840.907043 727.052856,837.461487 
	C727.276917,833.643433 726.844727,829.774353 727.249512,825.986450 
	C727.384888,824.719910 729.201355,822.633545 730.274963,822.617310 
	C745.233582,822.390808 760.212036,822.128967 774.354065,828.442261 
	C781.122986,831.463989 786.250732,836.199036 788.053955,843.235107 
	C790.263367,851.856201 792.156372,860.725403 792.668884,869.575195 
	C793.438232,882.857178 792.478821,896.233765 793.074585,909.533447 
	C793.365601,916.030945 794.966858,922.617920 796.952637,928.852966 
	C799.305359,936.240417 806.208862,938.588379 812.924988,939.977783 
	C818.583618,941.148438 824.480835,941.403320 830.285217,941.546387 
	C834.046265,941.639160 835.508789,942.581299 835.482178,946.680603 
	C835.390259,960.835632 835.549011,960.730713 821.468933,961.175110 
	C811.298523,961.496094 801.557129,963.544312 796.841431,973.882202 
	C794.631897,978.725891 793.371582,984.367065 793.184570,989.699524 
	C792.659485,1004.673706 793.340576,1019.692871 792.718933,1034.660034 
	C792.281006,1045.206177 790.912598,1055.769653 785.168274,1065.174438 
	C781.643555,1070.945312 776.372131,1074.832031 770.161865,1075.872681 
	C757.265076,1078.034180 744.178772,1079.076660 731.161011,1080.493286 
	C728.578552,1080.774292 727.068237,1079.541260 727.099976,1076.727051 
	C727.148743,1072.396729 727.189392,1068.063599 727.085327,1063.735229 
	C727.016296,1060.864868 728.481384,1059.946899 731.076599,1059.924072 
	C736.072083,1059.880249 741.079895,1059.939941 746.059326,1059.607910 
	C758.356323,1058.787720 764.530579,1055.302979 765.734192,1043.730225 
	C766.434814,1036.993896 767.196777,1030.238892 767.369141,1023.477966 
	C767.657715,1012.157837 767.238953,1000.817749 767.610413,989.502258 
	C767.887268,981.071899 768.832642,972.746765 773.317871,965.106140 
	C777.397522,958.156555 783.837036,954.890137 792.099976,951.807556 
	C789.858032,950.510254 788.538818,949.545166 787.072571,948.931213 
	C777.284790,944.833069 770.395569,937.840942 769.569214,927.184326 
	C768.247437,910.138428 768.071472,893.002991 767.454041,875.903809 
	C767.321899,872.242981 767.372620,868.575623 767.296570,864.461182 
z"/>
<path fill="#FFFFFF" opacity="1.000000" stroke="none" 
	d="
M572.828125,923.442505 
	C570.752563,925.745178 568.371216,927.955322 565.935242,930.103516 
	C554.387207,940.287354 551.162170,959.220154 559.737976,971.937378 
	C563.487549,977.497559 569.148621,981.768677 574.064575,986.902466 
	C567.839783,987.131775 564.439209,982.218445 561.282410,978.154236 
	C545.506958,957.844055 554.704773,931.830444 572.828125,923.442505 
z"/>
<path fill="#FFFFFF" opacity="1.000000" stroke="none" 
	d="
M677.304565,1041.219971 
	C683.162354,1043.326660 688.819763,1046.592896 694.909363,1048.039307 
	C706.487183,1050.789307 716.552063,1046.987183 724.947510,1038.647827 
	C726.235107,1037.368896 727.629272,1036.197266 729.290405,1034.919922 
	C726.334778,1038.384521 723.642212,1042.868408 719.684570,1045.249023 
	C706.680908,1053.070557 693.336304,1052.323120 680.350159,1044.700806 
	C679.136414,1043.988403 678.307068,1042.620972 677.304565,1041.219971 
z"/>
<path fill="#FFFFFF" opacity="1.000000" stroke="none" 
	d="
M625.734741,923.380371 
	C625.364624,924.276794 624.541504,925.742493 623.803040,925.701111 
	C617.952454,925.373047 611.628601,926.012329 606.382324,923.965271 
	C596.060059,919.937683 586.103333,920.205627 575.420410,923.006531 
	C577.381409,921.734497 579.728943,919.411804 582.108154,919.378845 
	C588.805908,919.286133 596.039062,918.723938 602.091919,920.964844 
	C609.929626,923.866516 617.315491,925.049500 625.734741,923.380371 
z"/>
<path fill="#FFFFFF" opacity="1.000000" stroke="none" 
	d="
M718.866943,860.712891 
	C713.758667,859.013672 708.743713,856.442810 703.420410,855.054077 
	C693.088745,852.358826 683.469177,854.649780 674.751526,860.787109 
	C674.090210,861.252625 673.314514,861.555725 672.226440,861.927734 
	C676.986145,858.872375 681.766479,854.475952 687.309143,853.056763 
	C698.681213,850.144958 709.646851,852.215576 718.866943,860.712891 
z"/>
<path fill="#FFFFFF" opacity="1.000000" stroke="none" 
	d="
M659.825317,1002.508789 
	C661.809570,1005.532349 665.492249,1008.867798 665.602661,1012.317627 
	C665.903076,1021.700256 669.259583,1029.661377 673.952087,1037.721436 
	C667.977112,1033.593628 665.493347,1027.037598 664.969360,1020.153503 
	C664.491272,1013.871582 663.052490,1008.205994 659.825317,1002.508789 
z"/>
<path fill="#FFFFFF" opacity="1.000000" stroke="none" 
	d="
M713.241943,920.837769 
	C713.369995,919.999390 713.652527,918.868042 714.364014,918.424438 
	C721.832214,913.767517 726.335938,906.918701 729.241577,898.817993 
	C729.449341,898.238953 730.028870,897.793335 730.757751,897.136353 
	C729.443909,908.015869 722.839050,915.406128 713.241943,920.837769 
z"/>
<path fill="#FFFFFF" opacity="1.000000" stroke="none" 
	d="
M575.786743,988.573486 
	C583.965820,988.520081 592.260071,988.809082 601.003906,989.239197 
	C594.720886,993.747314 587.521545,992.022095 580.415710,990.867859 
	C578.846863,990.613037 577.403259,989.586853 575.786743,988.573486 
z"/>
<path fill="#FFFFFF" opacity="1.000000" stroke="none" 
	d="
M720.115723,983.464417 
	C713.568604,983.751831 706.595581,973.965942 707.473877,966.342651 
	C708.309692,967.046143 709.358704,967.984619 709.450989,969.009216 
	C710.076111,975.948364 714.472656,979.954224 720.115723,983.464417 
z"/>
<path fill="#FFFFFF" opacity="1.000000" stroke="none" 
	d="
M731.324707,880.750488 
	C727.451172,874.859802 723.756226,868.697510 720.092651,862.174316 
	C726.803101,866.275879 729.854004,872.950134 731.324707,880.750488 
z"/>
<path fill="#FFFFFF" opacity="1.000000" stroke="none" 
	d="
M669.605713,863.929688 
	C667.096497,869.832581 664.244446,875.760315 661.060669,881.864136 
	C660.222900,874.430725 664.530273,869.092346 669.605713,863.929688 
z"/>
<path fill="#FFFFFF" opacity="1.000000" stroke="none" 
	d="
M735.407471,1003.828430 
	C734.243408,1002.399658 733.332764,1000.569885 732.234192,998.860901 
	C729.859131,995.166016 727.387817,991.533020 724.921631,987.530823 
	C730.664673,991.166199 734.103333,996.679382 735.407471,1003.828430 
z"/>
<path fill="#FFFFFF" opacity="1.000000" stroke="none" 
	d="
M642.773315,989.604187 
	C648.807739,990.120544 653.148560,993.845459 656.906616,998.782104 
	C652.221619,996.061829 647.575989,992.983459 642.773315,989.604187 
z"/>
<path fill="#FFFFFF" opacity="1.000000" stroke="none" 
	d="
M626.271240,983.083679 
	C632.170166,982.231384 637.267578,984.634949 641.948059,988.686523 
	C636.822571,987.145081 631.664978,985.248535 626.271240,983.083679 
z"/>
<path fill="#FFFFFF" opacity="1.000000" stroke="none" 
	d="
M735.714661,1020.255981 
	C735.346497,1016.542725 735.259033,1012.598755 735.387817,1008.376709 
	C738.884399,1011.970825 738.473206,1015.964111 735.714661,1020.255981 
z"/>
<path fill="#FFFFFF" opacity="1.000000" stroke="none" 
	d="
M651.732910,908.117798 
	C648.519165,911.052795 644.954285,913.973572 641.023193,916.818359 
	C644.231934,913.862732 647.806824,910.983093 651.732910,908.117798 
z"/>
<path fill="#FFFFFF" opacity="1.000000" stroke="none" 
	d="
M603.380249,989.058228 
	C606.841370,986.784912 610.673584,984.548767 614.730957,982.554199 
	C611.221191,984.895630 607.486267,986.995544 603.380249,989.058228 
z"/>
<path fill="#FFFFFF" opacity="1.000000" stroke="none" 
	d="
M660.307373,895.708496 
	C659.722107,900.775818 657.282043,905.044617 652.482178,908.077026 
	C654.763367,904.019775 657.390442,899.950134 660.307373,895.708496 
z"/>
<path fill="#FFFFFF" opacity="1.000000" stroke="none" 
	d="
M638.793457,917.385376 
	C635.592407,919.512329 632.036865,921.576904 628.261108,923.419556 
	C631.506836,921.239441 634.972900,919.281250 638.793457,917.385376 
z"/>
<path fill="#FFFFFF" opacity="1.000000" stroke="none" 
	d="
M730.514404,1034.196777 
	C731.686768,1030.865112 733.203064,1027.477417 735.017944,1023.959595 
	C733.830444,1027.266602 732.344360,1030.703735 730.514404,1034.196777 
z"/>
<path fill="#FFFFFF" opacity="1.000000" stroke="none" 
	d="
M731.684204,894.210571 
	C731.256836,890.817383 731.143433,887.190613 731.171936,883.084961 
	C731.541992,886.396423 731.770081,890.186646 731.684204,894.210571 
z"/>
<path fill="#FFFFFF" opacity="1.000000" stroke="none" 
	d="
M707.492065,962.779785 
	C706.617371,960.326538 705.918335,957.488037 705.452271,954.361694 
	C706.346191,956.847351 707.006958,959.620911 707.492065,962.779785 
z"/>
<path fill="#FFFFFF" opacity="1.000000" stroke="none" 
	d="
M707.982666,931.722656 
	C708.621948,929.001953 709.541748,926.065613 710.826355,923.153687 
	C710.215149,925.954468 709.239136,928.730713 707.982666,931.722656 
z"/>
<path fill="#FFFFFF" opacity="1.000000" stroke="none" 
	d="
M705.982910,941.697388 
	C706.068909,939.327026 706.436707,936.718079 707.112793,933.977173 
	C707.035583,936.383118 706.650085,938.920898 705.982910,941.697388 
z"/>
<path fill="#FFFFFF" opacity="1.000000" stroke="none" 
	d="
M724.789185,986.787476 
	C723.245117,986.248840 721.687866,985.373657 720.169556,984.142334 
	C721.730957,984.674316 723.253479,985.562622 724.789185,986.787476 
z"/>
<path fill="#FFFFFF" opacity="1.000000" stroke="none" 
	d="
M660.361572,885.761414 
	C660.738525,887.206665 660.853821,888.854126 660.792786,890.974060 
	C660.444336,889.618896 660.272156,887.791260 660.361572,885.761414 
z"/>
<path fill="#FFFFFF" opacity="1.000000" stroke="none" 
	d="
M711.483521,923.110596 
	C711.503723,922.446106 711.823792,921.708069 712.470093,920.923462 
	C712.458679,921.596924 712.121033,922.317017 711.483521,923.110596 
z"/>
<path fill="#FFFFFF" opacity="1.000000" stroke="none" 
	d="
M656.901855,999.432617 
	C657.554077,999.577881 658.250305,1000.026855 658.912659,1000.826477 
	C658.234497,1000.696899 657.590088,1000.216614 656.901855,999.432617 
z"/>
<path fill="#FFFFFF" opacity="1.000000" stroke="none" 
	d="
M673.935913,1038.395508 
	C674.598206,1038.503052 675.281677,1038.935181 675.971313,1039.706299 
	C675.304016,1039.603638 674.630554,1039.161743 673.935913,1038.395508 
z"/>
<path fill="#FFFFFF" opacity="1.000000" stroke="none" 
	d="
M401.654480,240.046814 
	C399.239777,225.141891 408.195068,215.183899 423.586395,215.183304 
	C573.245972,215.177551 722.905518,215.179825 872.565063,215.179886 
	C876.564880,215.179886 880.566406,215.104691 884.564209,215.195297 
	C896.279358,215.460785 905.047485,224.143829 904.995178,235.351791 
	C904.943604,246.401718 896.383728,254.810486 884.829102,255.158844 
	C884.162964,255.178925 883.496155,255.182602 882.829651,255.182602 
	C729.670288,255.183578 576.510864,255.188187 423.351471,255.174423 
	C411.682373,255.173370 405.233063,250.704437 401.654480,240.046814 
z"/>
<path fill="#FFFFFF" opacity="1.000000" stroke="none" 
	d="
M401.050476,299.758606 
	C401.261169,286.626953 409.417999,278.157684 421.917175,278.154114 
	C575.906006,278.110260 729.894775,278.115479 883.883606,278.146088 
	C895.055420,278.148285 903.487976,285.320374 904.870361,295.633148 
	C906.172913,305.350830 900.080566,314.629944 890.411133,317.335175 
	C888.210144,317.950958 885.817139,318.094086 883.512390,318.094604 
	C729.856873,318.128387 576.201416,318.130859 422.545898,318.114380 
	C410.505493,318.113098 403.572144,312.248840 401.050476,299.758606 
z"/>
<path fill="#FFFFFF" opacity="1.000000" stroke="none" 
	d="
M437.000854,341.179749 
	C512.639160,341.180023 587.777588,341.165558 662.916077,341.193634 
	C677.105225,341.198914 686.441528,351.861572 684.068665,365.161560 
	C682.597290,373.409302 675.314636,380.190857 666.987000,381.015381 
	C665.498352,381.162781 663.991943,381.176758 662.493774,381.176880 
	C582.690430,381.184296 502.886993,381.151245 423.083679,381.226624 
	C413.665039,381.235535 406.529236,377.811218 402.671814,369.011505 
	C396.928741,355.910156 406.345154,341.691711 421.007751,341.208893 
	C426.166931,341.039001 431.336304,341.180450 437.000854,341.179749 
z"/>
<path fill="#214d3c" opacity="1.000000" stroke="none" 
	d="
M625.864258,950.302368 
	C626.820496,947.270508 627.164307,944.164795 628.839355,942.185913 
	C638.980835,930.204224 651.712036,922.022705 667.099670,918.681763 
	C677.864136,916.344666 688.619568,923.368225 691.213196,934.045654 
	C694.274902,946.650208 694.883850,959.384155 691.237183,972.013550 
	C688.489929,981.527954 677.335205,988.823242 667.786194,986.859192 
	C652.804443,983.777649 640.061401,976.421387 629.484375,965.306091 
	C625.460022,961.076904 625.882874,955.894531 625.864258,950.302368 
z"/>
<path fill="#214d3c" opacity="1.000000" stroke="none" 
	d="
M562.459106,947.411377 
	C568.692871,927.887512 591.737061,921.647644 601.148804,929.225159 
	C596.962585,930.112183 593.172424,930.807434 589.440002,931.735229 
	C585.358337,932.750000 582.081726,933.992188 583.506042,939.757324 
	C584.680664,944.511536 580.076111,948.805176 574.522217,948.502869 
	C569.694458,948.240234 567.470642,950.364075 566.622864,954.754639 
	C565.877930,958.612366 565.022339,962.448608 564.220032,966.295410 
	C559.557251,960.026306 559.115479,955.566528 562.459106,947.411377 
z"/>
<path fill="#214d3c" opacity="1.000000" stroke="none" 
	d="
M678.205627,1012.519836 
	C677.104858,1016.641846 676.094604,1020.371887 675.069092,1024.158325 
	C670.379578,1015.137817 672.690430,1002.518982 680.644897,993.430847 
	C688.171936,984.830933 701.274902,981.701782 712.871033,986.007812 
	C708.406738,987.245728 704.285645,988.336060 700.197266,989.537354 
	C696.376465,990.659973 693.926880,992.338318 694.900574,997.284424 
	C695.778015,1001.741333 691.868347,1006.381042 687.815247,1005.439758 
	C681.426086,1003.955994 680.066345,1007.942627 678.205627,1012.519836 
z"/>
<path fill="#214d3c" opacity="1.000000" stroke="none" 
	d="
M668.728516,876.891907 
	C672.110107,869.845154 677.126587,864.394226 684.951538,860.892883 
	C691.140564,860.101379 696.623352,859.412231 702.106079,858.723083 
	C702.726440,858.900696 703.346863,859.078308 704.270630,859.609375 
	C702.209656,861.111694 699.845337,862.260620 697.480957,863.409546 
	C696.556335,863.558716 695.631653,863.707886 694.019775,863.918701 
	C691.816101,864.934937 690.299683,865.889587 688.783264,866.844238 
	C688.715088,867.983521 688.574951,869.123840 688.590332,870.261963 
	C688.692932,877.850647 686.533691,880.364075 678.765869,880.281311 
	C674.130310,880.231995 673.461731,883.252930 672.559570,886.429688 
	C672.071777,888.147339 671.754822,889.913574 671.109253,892.252075 
	C670.318054,893.806458 669.778381,894.766663 669.099426,895.974731 
	C668.281128,895.231201 667.609192,894.620728 666.937256,894.010193 
	C666.943054,890.641602 666.948914,887.273010 667.204224,883.213806 
	C667.878662,880.646118 668.303589,878.768982 668.728516,876.891907 
z"/>
<path fill="#FFFFFF" opacity="1.000000" stroke="none" 
	d="
M666.682922,894.214966 
	C667.609192,894.620728 668.281128,895.231201 669.099426,895.974731 
	C669.778381,894.766663 670.318054,893.806458 671.109863,892.650024 
	C671.362061,895.789734 671.362061,899.125488 671.362061,902.461304 
	C670.985962,902.636047 670.609802,902.810791 670.233704,902.985535 
	C668.965332,900.130249 667.696960,897.274963 666.682922,894.214966 
z"/>
<path fill="#FFFFFF" opacity="1.000000" stroke="none" 
	d="
M701.984802,858.350525 
	C696.623352,859.412231 691.140564,860.101379 685.266113,860.731323 
	C689.946960,856.050293 695.765686,856.134277 701.984802,858.350525 
z"/>
<path fill="#FFFFFF" opacity="1.000000" stroke="none" 
	d="
M697.900208,863.562500 
	C699.845337,862.260620 702.209656,861.111694 704.592896,859.638367 
	C706.526184,860.142700 708.440613,860.971375 710.355042,861.800110 
	C710.156433,862.183838 709.957764,862.567566 709.759155,862.951294 
	C705.945923,863.205994 702.132690,863.460693 697.900208,863.562500 
z"/>
<path fill="#FFFFFF" opacity="1.000000" stroke="none" 
	d="
M668.397339,876.963135 
	C668.303589,878.768982 667.878662,880.646118 667.182739,882.755127 
	C667.296570,881.002869 667.681396,879.018616 668.397339,876.963135 
z"/>
<path fill="#FFFFFF" opacity="1.000000" stroke="none" 
	d="
M689.155396,866.869202 
	C690.299683,865.889587 691.816101,864.934937 693.691284,864.045532 
	C692.542603,865.038574 691.035095,865.966309 689.155396,866.869202 
z"/>
</svg>